PathFileType	4	(X/Y/Z)	c:/Users/goper/Files/vsCode/490R/osim_files/A06/A06_Slow_06.trc
DataRate	CameraRate	NumFrames	NumMarkers	Units                	OrigDataRate	OrigDataStartFrame	OrigNumFrames
120.00	120.00	5	36	mm	120.0	902	1202
                Frame#	Time	LPSIS			LASIS			LTH1			LTH2			LTH3			LTH4			LLFE			LMFE			LSH1			LSH2			LSH3			LSH4			LLMAL			LMMAL			LCAL			LMTP5			LTOE			LMTP1			RPSIS			RASIS			RTH1			RTH2			RTH3			RTH4			RLFE			RMFE			RSH1			RSH2			RSH3			RSH4			RLMAL			RMMAL			RCAL			RMTP1			RTOE			RMTP5		
		X1	Y1	Z1	X2	Y2	Z2	X3	Y3	Z3	X4	Y4	Z4	X5	Y5	Z5	X6	Y6	Z6	X7	Y7	Z7	X8	Y8	Z8	X9	Y9	Z9	X10	Y10	Z10	X11	Y11	Z11	X12	Y12	Z12	X13	Y13	Z13	X14	Y14	Z14	X15	Y15	Z15	X16	Y16	Z16	X17	Y17	Z17	X18	Y18	Z18	X19	Y19	Z19	X20	Y20	Z20	X21	Y21	Z21	X22	Y22	Z22	X23	Y23	Z23	X24	Y24	Z24	X25	Y25	Z25	X26	Y26	Z26	X27	Y27	Z27	X28	Y28	Z28	X29	Y29	Z29	X30	Y30	Z30	X31	Y31	Z31	X32	Y32	Z32	X33	Y33	Z33	X34	Y34	Z34	X35	Y35	Z35	X36	Y36	Z36

902	7.50833	-3319.79883	989.10059	288.74866	-3513.00488	935.39746	349.85693	-3387.75317	583.98883	375.26410	-3385.91382	542.26392	367.57462	-3449.04028	574.41211	358.71094	-3437.69678	533.44110	354.88184	-3393.81421	465.88815	347.33875	0.00000	0.00000	0.00000	-3318.97583	383.71185	365.70074	-3315.71753	337.48782	368.74066	-3376.62842	371.52335	353.19324	-3367.42798	331.09906	355.72781	-3261.84546	91.78662	314.81735	-3279.81055	105.76352	230.44907	-3195.11719	84.64333	264.75232	-3376.20264	43.25960	332.79050	-3415.58521	62.34224	278.40106	-3391.46826	55.90429	239.46336	-3311.83423	1005.56372	159.29674	-3486.09717	981.01031	95.19865	0.00000	0.00000	0.00000	-3518.02124	555.45892	53.46530	-3551.71924	618.76074	65.57498	-3565.61914	576.42029	62.24753	-3584.20190	459.81619	79.34801	-3585.45532	460.16397	169.70879	-3618.78760	307.35880	90.45648	0.00000	0.00000	0.00000	-3674.17456	322.97034	104.34451	-3685.19116	276.33246	98.44558	0.00000	0.00000	0.00000	0.00000	0.00000	0.00000	-3633.94141	90.70841	129.94403	-3829.76318	143.69435	161.43758	-3839.74072	160.90961	121.04665	-3821.04834	137.11287	72.78117
903	7.51667	-3327.50195	987.49835	288.44592	-3520.75415	933.93073	349.13025	-3393.73608	583.18604	374.84311	-3391.60938	541.50360	367.06210	-3454.80640	573.25018	357.94919	-3443.06177	532.35187	354.04282	-3398.41382	465.15610	346.83386	-3409.35229	457.14801	244.38115	-3322.56250	383.73346	365.19180	-3318.80127	337.49991	368.32510	-3380.04395	370.86874	352.62582	-3370.26562	330.46423	355.20288	-3262.32568	92.11519	314.74106	-3280.32275	106.01781	230.25848	-3195.33276	85.01783	264.63440	-3376.28784	43.21266	332.75906	-3415.72607	62.05240	278.37134	-3391.64917	55.74181	239.44780	-3319.36426	1003.82428	159.00897	-3493.73511	979.57501	94.49213	0.00000	0.00000	0.00000	-3528.14990	554.80872	53.06554	-3561.34912	618.11194	64.74292	-3575.52759	575.99994	61.37247	-3596.32397	460.65802	79.28277	-3597.08105	460.24908	169.18112	-3631.64087	307.68152	90.13663	-3651.75464	263.51855	91.56812	-3686.91943	323.91019	103.60415	-3698.33960	277.34927	97.81685	0.00000	0.00000	0.00000	-3706.71118	139.47917	166.47180	-3648.94629	91.40334	130.24899	-3844.83667	146.51476	160.23056	-3854.32422	163.67737	119.72062	-3835.46680	139.47578	71.70858
904	7.52500	-3335.06812	985.83264	288.15848	-3528.64648	932.40173	348.32675	-3399.56372	582.42419	374.42770	-3397.00708	540.59869	366.50562	-3460.41968	571.93927	357.16864	-3448.46509	531.17804	353.22043	-3402.53735	463.14197	347.56204	-3415.08838	456.33905	244.07521	-3326.04468	383.70074	364.55670	-3321.91040	337.64044	367.77594	-3383.50903	370.21609	352.06360	-3373.39819	329.98401	354.64581	-3262.77637	92.42348	314.61224	-3280.83691	106.28755	230.06094	-3195.61182	85.84141	264.38535	-3376.35156	43.15282	332.74747	-3415.93115	61.72031	278.34436	-3391.85864	55.54214	239.42099	-3327.09985	1001.92633	158.73540	-3501.30249	978.28766	93.70886	0.00000	0.00000	0.00000	-3538.11670	553.79474	52.53584	-3570.99243	617.34045	64.05396	-3585.38989	575.41150	60.09146	-3606.97974	460.29736	78.80807	-3608.46362	460.20691	168.55080	-3642.17676	305.64523	89.79529	-3664.58276	263.78244	91.24544	-3699.21899	324.53839	102.90973	-3710.99878	278.02780	97.30085	0.00000	0.00000	0.00000	-3721.22339	140.57243	166.49031	-3663.34326	91.76510	130.39275	-3859.11035	148.81906	159.11035	-3868.24194	165.94572	118.48558	-3849.36426	141.43402	70.68781
905	7.53333	-3342.83081	984.02484	287.90961	-3536.69067	930.86108	347.50531	-3405.35498	581.59277	373.79950	-3402.51416	539.85083	365.70312	-3466.18774	570.69537	356.42444	-3453.85083	530.07800	352.30637	-3407.32886	463.49936	345.45425	-3420.68140	455.63516	243.76979	-3329.71436	383.86844	363.94656	-3324.95728	337.74139	367.18661	-3386.99854	369.64691	351.39752	-3376.34033	329.52902	354.05283	-3263.96240	92.83771	314.66959	-3281.45068	106.56596	229.87044	-3195.97656	86.37014	264.31647	-3376.40820	43.09571	332.73862	-3416.16211	61.33218	278.29520	-3392.11987	55.34367	239.39301	-3340.14087	999.33374	159.86757	-3509.04956	977.03589	92.93523	0.00000	0.00000	0.00000	-3548.00342	552.57819	52.08755	-3580.58398	616.42560	63.27922	-3595.20215	574.70514	59.69938	-3618.18579	459.50082	79.18215	-3619.37744	459.82236	168.03227	-3654.84033	306.13727	89.19765	-3675.22803	262.44376	91.97607	-3711.02588	324.76511	102.31121	-3723.25732	278.38275	96.74489	0.00000	0.00000	0.00000	-3734.97534	141.23955	166.23141	-3677.03491	91.95075	130.40341	-3872.74194	150.67065	158.18906	-3881.48462	167.74323	117.42672	-3862.56250	142.87924	69.82402
906	7.54167	-3350.85693	982.26208	287.63821	-3544.94409	929.44757	346.72009	-3411.17383	580.78381	373.11923	-3407.98535	539.19342	365.00464	-3471.97827	569.49567	355.65634	-3459.17847	528.94598	351.54388	-3411.52856	461.50018	346.12646	-3426.19727	455.12424	243.28661	-3333.37720	384.06882	363.21616	-3327.95337	337.97360	365.77295	-3390.54932	369.18320	350.70422	-3379.44727	329.16803	353.41977	-3263.94849	93.41014	314.30341	-3282.01685	106.86664	229.71370	-3196.38770	86.95532	264.23602	-3376.57178	43.07632	332.71436	-3416.44507	60.90490	278.28915	-3392.35815	55.05470	239.35747	-3348.13110	997.46100	159.61230	-3516.90942	975.77533	92.09584	0.00000	0.00000	0.00000	-3557.98193	551.59985	51.59920	-3590.13623	615.41418	62.56382	-3605.00732	573.63580	58.65174	-3627.82495	458.95197	77.84336	-3630.17236	459.32828	167.52010	-3667.34033	306.83472	89.18052	0.00000	0.00000	0.00000	-3722.48804	324.76227	101.71993	-3735.01367	278.44104	96.30900	0.00000	0.00000	0.00000	-3748.00952	141.56831	166.05644	-3690.05420	91.78156	130.43506	-3885.60620	151.92477	157.40076	-3894.07886	168.93629	116.61364	-3875.12915	143.85762	69.10366
